<svg xmlns="http://www.w3.org/2000/svg" viewBox="0 0 64 64"><g id="Layer_19" data-name="Layer 19"><path d="M26.47,36.53H4a1,1,0,0,0-1,1V60a1,1,0,0,0,1,1H26.47a1,1,0,0,0,1-1V37.53A1,1,0,0,0,26.47,36.53ZM25.47,59H5V38.53H25.47Z"/><path d="M26.47,8.45H4a1,1,0,0,0-1,1V31.92a1,1,0,0,0,1,1H26.47a1,1,0,0,0,1-1V9.45A1,1,0,0,0,26.47,8.45Zm-1,22.47H5V10.45H25.47Z"/><path d="M54.55,36.53H32.08a1,1,0,0,0-1,1V60a1,1,0,0,0,1,1H54.55a1,1,0,0,0,1-1V37.53A1,1,0,0,0,54.55,36.53ZM53.55,59H33.08V38.53H53.55Z"/><path d="M60.91,22.71,52.28,3.59A1,1,0,0,0,51,3.09L31.84,11.72a1,1,0,0,0-.5,1.32L40,32.16a1,1,0,0,0,1.32.5L60.41,24A1,1,0,0,0,60.91,22.71ZM41.38,30.42l-7.8-17.29L50.87,5.32l7.81,17.3Z"/></g></svg>